<?xml version="1.0" encoding="UTF-8" standalone="no"?>
<!-- Created with Inkscape (http://www.inkscape.org/) -->

<svg
   xmlns:dc="http://purl.org/dc/elements/1.1/"
   xmlns:cc="http://creativecommons.org/ns#"
   xmlns:rdf="http://www.w3.org/1999/02/22-rdf-syntax-ns#"
   xmlns:svg="http://www.w3.org/2000/svg"
   xmlns="http://www.w3.org/2000/svg"
   xmlns:sodipodi="http://sodipodi.sourceforge.net/DTD/sodipodi-0.dtd"
   xmlns:inkscape="http://www.inkscape.org/namespaces/inkscape"
   width="70.447685mm"
   height="8.4176846mm"
   viewBox="0 0 249.61778 29.826441"
   id="svg2"
   version="1.1"
   inkscape:version="0.91 r13725"
   sodipodi:docname="domain-name.svg">
  <defs
     id="defs4" />
  <sodipodi:namedview
     id="base"
     pagecolor="#ffffff"
     bordercolor="#666666"
     borderopacity="1.0"
     inkscape:pageopacity="0.0"
     inkscape:pageshadow="2"
     inkscape:zoom="2.8"
     inkscape:cx="111.72707"
     inkscape:cy="14.633395"
     inkscape:document-units="px"
     inkscape:current-layer="layer1"
     showgrid="false"
     fit-margin-top="0"
     fit-margin-left="0"
     fit-margin-right="0"
     fit-margin-bottom="0"
     inkscape:window-width="1366"
     inkscape:window-height="660"
     inkscape:window-x="0"
     inkscape:window-y="0"
     inkscape:window-maximized="1" />
  <metadata
     id="metadata7">
    <rdf:RDF>
      <cc:Work
         rdf:about="">
        <dc:format>image/svg+xml</dc:format>
        <dc:type
           rdf:resource="http://purl.org/dc/dcmitype/StillImage" />
        <dc:title></dc:title>
      </cc:Work>
    </rdf:RDF>
  </metadata>
  <g
     inkscape:label="Layer 1"
     inkscape:groupmode="layer"
     id="layer1"
     transform="translate(-173.759,-354.17136)">
    <flowRoot
       xml:space="preserve"
       id="flowRoot3336"
       style="font-style:normal;font-weight:normal;font-size:40px;line-height:125%;font-family:sans-serif;letter-spacing:0px;word-spacing:0px;fill:#000000;fill-opacity:1;stroke:none;stroke-width:1px;stroke-linecap:butt;stroke-linejoin:miter;stroke-opacity:1"
       transform="translate(-1.4285714,-0.80357143)"><flowRegion
         id="flowRegion3338"><rect
           id="rect3340"
           width="562.85712"
           height="285.71429"
           x="105.71429"
           y="320.93362"
           style="font-size:40px" /></flowRegion><flowPara
         id="flowPara3342"></flowPara></flowRoot>    <g
       style="font-style:normal;font-weight:normal;font-size:17.5px;line-height:125%;font-family:sans-serif;letter-spacing:0px;word-spacing:0px;fill:#000000;fill-opacity:1;stroke:none;stroke-width:1px;stroke-linecap:butt;stroke-linejoin:miter;stroke-opacity:1"
       id="text3352"
       transform="matrix(1.7935184,0,0,1,-94.878247,1.173405)">
      <path
         d="m 178.00717,366.70153 q -0.805,0 -1.33,0.28 -0.525,0.2625 -0.7,1.155 l -0.0175,0.0175 q -0.14,-0.49 -0.3325,-0.77 -0.175,-0.28 -0.42,-0.42 -0.245,-0.1575 -0.5775,-0.1925 -0.3325,-0.0525 -0.77,-0.0525 l -3.185,0 q -0.77,0 -1.3125,-0.105 -0.5425,-0.1225 -0.8925,-0.4025 -0.35,-0.28 -0.49,-0.77 -0.1575,-0.49 -0.1225,-1.2425 0.49,1.4175 2.1175,1.4175 l 3.36,0 q 0.5075,0 0.9275,0.0525 0.42,0.0525 0.7525,0.21 0.3325,0.1575 0.5775,0.4375 0.245,0.2625 0.3675,0.7175 l 0.0175,-0.0175 q 0.105,-0.4375 0.28,-0.7 0.1925,-0.28 0.49,-0.4375 0.2975,-0.1575 0.6825,-0.21 0.4025,-0.07 0.8925,-0.07 l 3.605,0 q 0.8925,0 1.3825,-0.35 0.49,-0.35 0.735,-1.19 l 0.035,0 q 0.0175,0.77 -0.1225,1.295 -0.14,0.5075 -0.455,0.805 -0.2975,0.2975 -0.7875,0.42 -0.4725,0.1225 -1.1375,0.1225 l -3.57,0 z"
         id="path3383"
         inkscape:connector-curvature="0" />
    </g>
    <g
       style="font-style:normal;font-weight:normal;font-size:17.5px;line-height:125%;font-family:sans-serif;letter-spacing:0px;word-spacing:0px;fill:#000000;fill-opacity:1;stroke:none;stroke-width:1px;stroke-linecap:butt;stroke-linejoin:miter;stroke-opacity:1"
       id="text3352-1"
       transform="matrix(2.2136165,0,0,1,-171.57029,0.99483363)">
      <path
         d="m 194.43564,366.83437 q -0.805,0 -1.33,0.28 -0.525,0.2625 -0.7,1.155 l -0.0175,0.0175 q -0.14,-0.49 -0.3325,-0.77 -0.175,-0.28 -0.42,-0.42 -0.245,-0.1575 -0.5775,-0.1925 -0.3325,-0.0525 -0.77,-0.0525 l -3.185,0 q -0.77,0 -1.3125,-0.105 -0.5425,-0.1225 -0.8925,-0.4025 -0.35,-0.28 -0.49,-0.77 -0.1575,-0.49 -0.1225,-1.2425 0.49,1.4175 2.1175,1.4175 l 3.36,0 q 0.5075,0 0.9275,0.0525 0.42,0.0525 0.7525,0.21 0.3325,0.1575 0.5775,0.4375 0.245,0.2625 0.3675,0.7175 l 0.0175,-0.0175 q 0.105,-0.4375 0.28,-0.7 0.1925,-0.28 0.49,-0.4375 0.2975,-0.1575 0.6825,-0.21 0.4025,-0.07 0.8925,-0.07 l 3.605,0 q 0.8925,0 1.3825,-0.35 0.49,-0.35 0.735,-1.19 l 0.035,0 q 0.0175,0.77 -0.1225,1.295 -0.14,0.5075 -0.455,0.805 -0.2975,0.2975 -0.7875,0.42 -0.4725,0.1225 -1.1375,0.1225 l -3.57,0 z"
         id="path3386"
         inkscape:connector-curvature="0" />
    </g>
    <g
       style="font-style:normal;font-weight:normal;font-size:17.5px;line-height:125%;font-family:sans-serif;letter-spacing:0px;word-spacing:0px;fill:#000000;fill-opacity:1;stroke:none;stroke-width:1px;stroke-linecap:butt;stroke-linejoin:miter;stroke-opacity:1"
       id="text3352-0"
       transform="matrix(1.3734204,0,0,1,-12.144264,2.0815811)">
      <path
         d="m 217.82849,365.58437 q -0.805,0 -1.33,0.28 -0.525,0.2625 -0.7,1.155 l -0.0175,0.0175 q -0.14,-0.49 -0.3325,-0.77 -0.175,-0.28 -0.42,-0.42 -0.245,-0.1575 -0.5775,-0.1925 -0.3325,-0.0525 -0.77,-0.0525 l -3.185,0 q -0.77,0 -1.3125,-0.105 -0.5425,-0.1225 -0.8925,-0.4025 -0.35,-0.28 -0.49,-0.77 -0.1575,-0.49 -0.1225,-1.2425 0.49,1.4175 2.1175,1.4175 l 3.36,0 q 0.5075,0 0.9275,0.0525 0.42,0.0525 0.7525,0.21 0.3325,0.1575 0.5775,0.4375 0.245,0.2625 0.3675,0.7175 l 0.0175,-0.0175 q 0.105,-0.4375 0.28,-0.7 0.1925,-0.28 0.49,-0.4375 0.2975,-0.1575 0.6825,-0.21 0.4025,-0.07 0.8925,-0.07 l 3.605,0 q 0.8925,0 1.3825,-0.35 0.49,-0.35 0.735,-1.19 l 0.035,0 q 0.0175,0.77 -0.1225,1.295 -0.14,0.5075 -0.455,0.805 -0.2975,0.2975 -0.7875,0.42 -0.4725,0.1225 -1.1375,0.1225 l -3.57,0 z"
         id="path3389"
         inkscape:connector-curvature="0" />
    </g>
    <g
       style="font-style:normal;font-weight:normal;font-size:10px;line-height:125%;font-family:sans-serif;letter-spacing:0px;word-spacing:0px;fill:#000000;fill-opacity:1;stroke:none;stroke-width:1px;stroke-linecap:butt;stroke-linejoin:miter;stroke-opacity:1"
       id="text3391">
      <path
         d="m 178.33908,358.46823 0,3.30078 -0.89844,0 0,-3.27148 q 0,-0.77637 -0.30273,-1.16211 -0.30274,-0.38574 -0.9082,-0.38574 -0.72754,0 -1.14747,0.46386 -0.41992,0.46387 -0.41992,1.26465 l 0,3.09082 -0.90332,0 0,-7.59765 0.90332,0 0,2.97851 q 0.32227,-0.49316 0.75684,-0.7373 0.43945,-0.24414 1.01074,-0.24414 0.94238,0 1.42578,0.58593 0.4834,0.58106 0.4834,1.71387 z"
         id="path3452"
         inkscape:connector-curvature="0" />
      <path
         d="m 181.02951,354.74753 0,1.55273 1.85059,0 0,0.69824 -1.85059,0 0,2.96875 q 0,0.66895 0.18066,0.85938 0.18555,0.19043 0.74707,0.19043 l 0.92286,0 0,0.75195 -0.92286,0 q -1.04003,0 -1.43554,-0.38574 -0.39551,-0.39062 -0.39551,-1.41602 l 0,-2.96875 -0.65918,0 0,-0.69824 0.65918,0 0,-1.55273 0.90332,0 z"
         id="path3454"
         inkscape:connector-curvature="0" />
      <path
         d="m 184.95529,354.74753 0,1.55273 1.85059,0 0,0.69824 -1.85059,0 0,2.96875 q 0,0.66895 0.18067,0.85938 0.18554,0.19043 0.74707,0.19043 l 0.92285,0 0,0.75195 -0.92285,0 q -1.04004,0 -1.43555,-0.38574 -0.39551,-0.39062 -0.39551,-1.41602 l 0,-2.96875 -0.65918,0 0,-0.69824 0.65918,0 0,-1.55273 0.90332,0 z"
         id="path3456"
         inkscape:connector-curvature="0" />
      <path
         d="m 188.86154,360.9487 0,2.90039 -0.90332,0 0,-7.54883 0.90332,0 0,0.83008 q 0.2832,-0.48828 0.71289,-0.72266 0.43457,-0.23925 1.03516,-0.23925 0.99609,0 1.61621,0.79101 0.625,0.79102 0.625,2.08008 0,1.28906 -0.625,2.08008 -0.62012,0.79101 -1.61621,0.79101 -0.60059,0 -1.03516,-0.23437 -0.42969,-0.23926 -0.71289,-0.72754 z m 3.05664,-1.90918 q 0,-0.99121 -0.41015,-1.55273 -0.40528,-0.56641 -1.11817,-0.56641 -0.71289,0 -1.12304,0.56641 -0.40528,0.56152 -0.40528,1.55273 0,0.99121 0.40528,1.55762 0.41015,0.56152 1.12304,0.56152 0.71289,0 1.11817,-0.56152 0.41015,-0.56641 0.41015,-1.55762 z"
         id="path3458"
         inkscape:connector-curvature="0" />
      <path
         d="m 197.82639,356.4614 0,0.8496 q -0.38086,-0.19531 -0.79102,-0.29296 -0.41016,-0.0977 -0.84961,-0.0977 -0.66894,0 -1.00586,0.20508 -0.33203,0.20508 -0.33203,0.61523 0,0.3125 0.23926,0.49317 0.23926,0.17578 0.96191,0.33691 l 0.30762,0.0684 q 0.95703,0.20508 1.35742,0.58105 0.40527,0.3711 0.40527,1.04004 0,0.76172 -0.60546,1.20606 -0.60059,0.44433 -1.65528,0.44433 -0.43945,0 -0.91797,-0.0879 -0.47363,-0.083 -1.00097,-0.2539 l 0,-0.92774 q 0.49804,0.25879 0.98144,0.39063 0.4834,0.12695 0.95703,0.12695 0.63477,0 0.97657,-0.21484 0.34179,-0.21973 0.34179,-0.61524 0,-0.36621 -0.24902,-0.56152 -0.24414,-0.19531 -1.0791,-0.37598 l -0.3125,-0.0732 q -0.83496,-0.17578 -1.20606,-0.53711 -0.37109,-0.36621 -0.37109,-1.00098 0,-0.77148 0.54687,-1.1914 0.54688,-0.41992 1.55274,-0.41992 0.49805,0 0.9375,0.0732 0.43945,0.0732 0.81055,0.21973 z"
         id="path3460"
         inkscape:connector-curvature="0" />
      <path
         d="m 199.78439,360.52878 1.03028,0 0,1.24023 -1.03028,0 0,-1.24023 z m 0,-3.93067 1.03028,0 0,1.24024 -1.03028,0 0,-1.24024 z"
         id="path3462"
         inkscape:connector-curvature="0" />
      <path
         d="m 204.53049,354.47897 0.83008,0 -2.53907,8.21778 -0.83008,0 2.53907,-8.21778 z"
         id="path3464"
         inkscape:connector-curvature="0" />
      <path
         d="m 207.90939,354.47897 0.83008,0 -2.53906,8.21778 -0.83008,0 2.53906,-8.21778 z"
         id="path3466"
         inkscape:connector-curvature="0" />
      <path
         d="m 213.29025,357.13034 0,-2.95898 0.89844,0 0,7.59765 -0.89844,0 0,-0.82031 q -0.2832,0.48828 -0.71777,0.72754 -0.42969,0.23437 -1.03516,0.23437 -0.99121,0 -1.61621,-0.79101 -0.62012,-0.79102 -0.62012,-2.08008 0,-1.28906 0.62012,-2.08008 0.625,-0.79101 1.61621,-0.79101 0.60547,0 1.03516,0.23925 0.43457,0.23438 0.71777,0.72266 z m -3.06152,1.90918 q 0,0.99121 0.40527,1.55762 0.41016,0.56152 1.12305,0.56152 0.71289,0 1.12305,-0.56152 0.41015,-0.56641 0.41015,-1.55762 0,-0.99121 -0.41015,-1.55273 -0.41016,-0.56641 -1.12305,-0.56641 -0.71289,0 -1.12305,0.56641 -0.40527,0.56152 -0.40527,1.55273 z"
         id="path3468"
         inkscape:connector-curvature="0" />
      <path
         d="m 219.20822,357.14011 q -0.15137,-0.0879 -0.33203,-0.12696 -0.17578,-0.0439 -0.39062,-0.0439 -0.76172,0 -1.17188,0.49804 -0.40527,0.49317 -0.40527,1.4209 l 0,2.88086 -0.90332,0 0,-5.46875 0.90332,0 0,0.84961 q 0.2832,-0.49805 0.7373,-0.7373 0.4541,-0.24414 1.10352,-0.24414 0.0928,0 0.20508,0.0146 0.1123,0.01 0.24902,0.0342 l 0.005,0.92286 z"
         id="path3470"
         inkscape:connector-curvature="0" />
      <path
         d="m 220.16037,356.30026 0.89844,0 0,5.46875 -0.89844,0 0,-5.46875 z m 0,-2.1289 0.89844,0 0,1.13769 -0.89844,0 0,-1.13769 z"
         id="path3472"
         inkscape:connector-curvature="0" />
      <path
         d="m 222.28928,356.30026 0.95214,0 1.70899,4.58985 1.70898,-4.58985 0.95215,0 -2.05078,5.46875 -1.2207,0 -2.05078,-5.46875 z"
         id="path3474"
         inkscape:connector-curvature="0" />
      <path
         d="m 233.52951,358.81003 0,0.43945 -4.13086,0 q 0.0586,0.92774 0.55664,1.41602 0.50293,0.4834 1.39649,0.4834 0.51757,0 1.00097,-0.12696 0.48828,-0.12695 0.9668,-0.38086 l 0,0.84961 q -0.4834,0.20508 -0.99121,0.3125 -0.50781,0.10742 -1.03027,0.10742 -1.3086,0 -2.0752,-0.76171 -0.76172,-0.76172 -0.76172,-2.06055 0,-1.34278 0.72266,-2.12891 0.72754,-0.79101 1.95801,-0.79101 1.10351,0 1.74316,0.71289 0.64453,0.708 0.64453,1.92871 z m -0.89844,-0.26367 q -0.01,-0.73731 -0.41504,-1.17676 -0.40039,-0.43945 -1.06445,-0.43945 -0.75195,0 -1.20605,0.4248 -0.44922,0.4248 -0.51758,1.19629 l 3.20312,-0.005 z"
         id="path3476"
         inkscape:connector-curvature="0" />
      <path
         d="m 235.11154,360.52878 1.03028,0 0,1.24023 -1.03028,0 0,-1.24023 z"
         id="path3478"
         inkscape:connector-curvature="0" />
      <path
         d="m 241.76682,358.97116 q 0,-0.97656 -0.40528,-1.51367 -0.40039,-0.53711 -1.12793,-0.53711 -0.72265,0 -1.12793,0.53711 -0.40039,0.53711 -0.40039,1.51367 0,0.97168 0.40039,1.50879 0.40528,0.53711 1.12793,0.53711 0.72754,0 1.12793,-0.53711 0.40528,-0.53711 0.40528,-1.50879 z m 0.89843,2.11914 q 0,1.39649 -0.62011,2.0752 -0.62012,0.68359 -1.89942,0.68359 -0.47363,0 -0.89355,-0.0732 -0.41993,-0.0684 -0.81543,-0.21485 l 0,-0.87402 q 0.3955,0.21484 0.78125,0.31738 0.38574,0.10254 0.78613,0.10254 0.88379,0 1.32324,-0.46386 0.43946,-0.45899 0.43946,-1.39161 l 0,-0.44433 q -0.27833,0.4834 -0.7129,0.72265 -0.43457,0.23926 -1.04003,0.23926 -1.00586,0 -1.6211,-0.7666 -0.61523,-0.7666 -0.61523,-2.03125 0,-1.26953 0.61523,-2.03613 0.61524,-0.7666 1.6211,-0.7666 0.60546,0 1.04003,0.23925 0.43457,0.23926 0.7129,0.72266 l 0,-0.83008 0.89843,0 0,4.79004 z"
         id="path3480"
         inkscape:connector-curvature="0" />
      <path
         d="m 246.63498,356.93015 q -0.72266,0 -1.14258,0.5664 -0.41992,0.56152 -0.41992,1.54297 0,0.98145 0.41504,1.54785 0.41992,0.56153 1.14746,0.56153 0.71777,0 1.13769,-0.56641 0.41993,-0.56641 0.41993,-1.54297 0,-0.97168 -0.41993,-1.53809 -0.41992,-0.57128 -1.13769,-0.57128 z m 0,-0.76172 q 1.17187,0 1.84082,0.76172 0.66894,0.76171 0.66894,2.10937 0,1.34277 -0.66894,2.10938 -0.66895,0.76171 -1.84082,0.76171 -1.17676,0 -1.8457,-0.76171 -0.66407,-0.76661 -0.66407,-2.10938 0,-1.34766 0.66407,-2.10937 0.66894,-0.76172 1.8457,-0.76172 z"
         id="path3482"
         inkscape:connector-curvature="0" />
      <path
         d="m 252.74826,356.93015 q -0.72266,0 -1.14258,0.5664 -0.41992,0.56152 -0.41992,1.54297 0,0.98145 0.41504,1.54785 0.41992,0.56153 1.14746,0.56153 0.71777,0 1.1377,-0.56641 0.41992,-0.56641 0.41992,-1.54297 0,-0.97168 -0.41992,-1.53809 -0.41993,-0.57128 -1.1377,-0.57128 z m 0,-0.76172 q 1.17188,0 1.84082,0.76172 0.66895,0.76171 0.66895,2.10937 0,1.34277 -0.66895,2.10938 -0.66894,0.76171 -1.84082,0.76171 -1.17676,0 -1.8457,-0.76171 -0.66407,-0.76661 -0.66407,-2.10938 0,-1.34766 0.66407,-2.10937 0.66894,-0.76172 1.8457,-0.76172 z"
         id="path3484"
         inkscape:connector-curvature="0" />
      <path
         d="m 260.34103,358.97116 q 0,-0.97656 -0.40527,-1.51367 -0.40039,-0.53711 -1.12793,-0.53711 -0.72266,0 -1.12793,0.53711 -0.40039,0.53711 -0.40039,1.51367 0,0.97168 0.40039,1.50879 0.40527,0.53711 1.12793,0.53711 0.72754,0 1.12793,-0.53711 0.40527,-0.53711 0.40527,-1.50879 z m 0.89844,2.11914 q 0,1.39649 -0.62012,2.0752 -0.62011,0.68359 -1.89941,0.68359 -0.47363,0 -0.89355,-0.0732 -0.41993,-0.0684 -0.81543,-0.21485 l 0,-0.87402 q 0.3955,0.21484 0.78125,0.31738 0.38574,0.10254 0.78613,0.10254 0.88379,0 1.32324,-0.46386 0.43945,-0.45899 0.43945,-1.39161 l 0,-0.44433 q -0.27832,0.4834 -0.71289,0.72265 -0.43457,0.23926 -1.04004,0.23926 -1.00586,0 -1.62109,-0.7666 -0.61523,-0.7666 -0.61523,-2.03125 0,-1.26953 0.61523,-2.03613 0.61523,-0.7666 1.62109,-0.7666 0.60547,0 1.04004,0.23925 0.43457,0.23926 0.71289,0.72266 l 0,-0.83008 0.89844,0 0,4.79004 z"
         id="path3486"
         inkscape:connector-curvature="0" />
      <path
         d="m 263.09006,354.17136 0.89843,0 0,7.59765 -0.89843,0 0,-7.59765 z"
         id="path3488"
         inkscape:connector-curvature="0" />
      <path
         d="m 270.54123,358.81003 0,0.43945 -4.13086,0 q 0.0586,0.92774 0.55664,1.41602 0.50293,0.4834 1.39648,0.4834 0.51758,0 1.00098,-0.12696 0.48828,-0.12695 0.9668,-0.38086 l 0,0.84961 q -0.4834,0.20508 -0.99121,0.3125 -0.50782,0.10742 -1.03028,0.10742 -1.30859,0 -2.07519,-0.76171 -0.76172,-0.76172 -0.76172,-2.06055 0,-1.34278 0.72266,-2.12891 0.72754,-0.79101 1.958,-0.79101 1.10352,0 1.74317,0.71289 0.64453,0.708 0.64453,1.92871 z m -0.89844,-0.26367 q -0.01,-0.73731 -0.41504,-1.17676 -0.40039,-0.43945 -1.06445,-0.43945 -0.75195,0 -1.20606,0.4248 -0.44921,0.4248 -0.51757,1.19629 l 3.20312,-0.005 z"
         id="path3490"
         inkscape:connector-curvature="0" />
      <path
         d="m 272.12326,360.52878 1.03027,0 0,1.24023 -1.03027,0 0,-1.24023 z"
         id="path3492"
         inkscape:connector-curvature="0" />
      <path
         d="m 279.11545,356.51022 0,0.83985 q -0.38086,-0.20996 -0.7666,-0.3125 -0.38086,-0.10742 -0.77149,-0.10742 -0.87402,0 -1.35742,0.55664 -0.4834,0.55175 -0.4834,1.55273 0,1.00098 0.4834,1.55762 0.4834,0.55176 1.35742,0.55176 0.39063,0 0.77149,-0.10254 0.38574,-0.10743 0.7666,-0.31739 l 0,0.83008 q -0.37598,0.17578 -0.78125,0.26367 -0.40039,0.0879 -0.85449,0.0879 -1.23536,0 -1.96289,-0.77636 -0.72754,-0.77637 -0.72754,-2.09473 0,-1.33789 0.73242,-2.10449 0.7373,-0.7666 2.0166,-0.7666 0.41504,0 0.81055,0.0879 0.3955,0.083 0.7666,0.2539 z"
         id="path3494"
         inkscape:connector-curvature="0" />
      <path
         d="m 282.78732,356.93015 q -0.72265,0 -1.14258,0.5664 -0.41992,0.56152 -0.41992,1.54297 0,0.98145 0.41504,1.54785 0.41992,0.56153 1.14746,0.56153 0.71778,0 1.1377,-0.56641 0.41992,-0.56641 0.41992,-1.54297 0,-0.97168 -0.41992,-1.53809 -0.41992,-0.57128 -1.1377,-0.57128 z m 0,-0.76172 q 1.17188,0 1.84082,0.76172 0.66895,0.76171 0.66895,2.10937 0,1.34277 -0.66895,2.10938 -0.66894,0.76171 -1.84082,0.76171 -1.17675,0 -1.8457,-0.76171 -0.66406,-0.76661 -0.66406,-2.10938 0,-1.34766 0.66406,-2.10937 0.66895,-0.76172 1.8457,-0.76172 z"
         id="path3496"
         inkscape:connector-curvature="0" />
      <path
         d="m 291.03928,357.35007 q 0.33691,-0.60547 0.80566,-0.89356 0.46875,-0.28808 1.10352,-0.28808 0.85449,0 1.31836,0.60058 0.46386,0.59571 0.46386,1.69922 l 0,3.30078 -0.90332,0 0,-3.27148 q 0,-0.78613 -0.27832,-1.16699 -0.27832,-0.38086 -0.84961,-0.38086 -0.69824,0 -1.10351,0.46386 -0.40528,0.46387 -0.40528,1.26465 l 0,3.09082 -0.90332,0 0,-3.27148 q 0,-0.79102 -0.27832,-1.16699 -0.27832,-0.38086 -0.85937,-0.38086 -0.68848,0 -1.09375,0.46875 -0.40528,0.46386 -0.40528,1.25976 l 0,3.09082 -0.90332,0 0,-5.46875 0.90332,0 0,0.84961 q 0.30762,-0.50293 0.73731,-0.74219 0.42969,-0.23925 1.02051,-0.23925 0.5957,0 1.01074,0.30273 0.41992,0.30274 0.62012,0.87891 z"
         id="path3498"
         inkscape:connector-curvature="0" />
      <path
         d="m 298.10471,354.47897 0.83007,0 -2.53906,8.21778 -0.83008,0 2.53907,-8.21778 z"
         id="path3500"
         inkscape:connector-curvature="0" />
      <path
         d="m 303.48557,357.13034 0,-2.95898 0.89843,0 0,7.59765 -0.89843,0 0,-0.82031 q -0.28321,0.48828 -0.71778,0.72754 -0.42969,0.23437 -1.03515,0.23437 -0.99122,0 -1.61622,-0.79101 -0.62011,-0.79102 -0.62011,-2.08008 0,-1.28906 0.62011,-2.08008 0.625,-0.79101 1.61622,-0.79101 0.60546,0 1.03515,0.23925 0.43457,0.23438 0.71778,0.72266 z m -3.06153,1.90918 q 0,0.99121 0.40528,1.55762 0.41015,0.56152 1.12304,0.56152 0.71289,0 1.12305,-0.56152 0.41016,-0.56641 0.41016,-1.55762 0,-0.99121 -0.41016,-1.55273 -0.41016,-0.56641 -1.12305,-0.56641 -0.71289,0 -1.12304,0.56641 -0.40528,0.56152 -0.40528,1.55273 z"
         id="path3502"
         inkscape:connector-curvature="0" />
      <path
         d="m 309.40353,357.14011 q -0.15136,-0.0879 -0.33203,-0.12696 -0.17578,-0.0439 -0.39062,-0.0439 -0.76172,0 -1.17188,0.49804 -0.40527,0.49317 -0.40527,1.4209 l 0,2.88086 -0.90332,0 0,-5.46875 0.90332,0 0,0.84961 q 0.2832,-0.49805 0.7373,-0.7373 0.45411,-0.24414 1.10352,-0.24414 0.0928,0 0.20508,0.0146 0.1123,0.01 0.24902,0.0342 l 0.005,0.92286 z"
         id="path3504"
         inkscape:connector-curvature="0" />
      <path
         d="m 310.35568,356.30026 0.89844,0 0,5.46875 -0.89844,0 0,-5.46875 z m 0,-2.1289 0.89844,0 0,1.13769 -0.89844,0 0,-1.13769 z"
         id="path3506"
         inkscape:connector-curvature="0" />
      <path
         d="m 312.48459,356.30026 0.95215,0 1.70898,4.58985 1.70899,-4.58985 0.95214,0 -2.05078,5.46875 -1.2207,0 -2.05078,-5.46875 z"
         id="path3508"
         inkscape:connector-curvature="0" />
      <path
         d="m 323.72482,358.81003 0,0.43945 -4.13086,0 q 0.0586,0.92774 0.55664,1.41602 0.50293,0.4834 1.39649,0.4834 0.51758,0 1.00098,-0.12696 0.48828,-0.12695 0.96679,-0.38086 l 0,0.84961 q -0.4834,0.20508 -0.99121,0.3125 -0.50781,0.10742 -1.03027,0.10742 -1.3086,0 -2.0752,-0.76171 -0.76172,-0.76172 -0.76172,-2.06055 0,-1.34278 0.72266,-2.12891 0.72754,-0.79101 1.95801,-0.79101 1.10351,0 1.74316,0.71289 0.64453,0.708 0.64453,1.92871 z m -0.89843,-0.26367 q -0.01,-0.73731 -0.41504,-1.17676 -0.40039,-0.43945 -1.06446,-0.43945 -0.75195,0 -1.20605,0.4248 -0.44922,0.4248 -0.51758,1.19629 l 3.20313,-0.005 z"
         id="path3510"
         inkscape:connector-curvature="0" />
      <path
         d="m 326.77658,354.47897 0.83008,0 -2.53906,8.21778 -0.83008,0 2.53906,-8.21778 z"
         id="path3512"
         inkscape:connector-curvature="0" />
      <path
         d="m 328.46603,359.61081 0,-3.31055 0.89844,0 0,3.27637 q 0,0.77637 0.30274,1.16699 0.30273,0.38574 0.9082,0.38574 0.72754,0 1.14746,-0.46386 0.4248,-0.46387 0.4248,-1.26465 l 0,-3.10059 0.89844,0 0,5.46875 -0.89844,0 0,-0.83984 q -0.32714,0.49805 -0.76171,0.74219 -0.42969,0.23925 -1.00098,0.23925 -0.94238,0 -1.43066,-0.58593 -0.48829,-0.58594 -0.48829,-1.71387 z"
         id="path3514"
         inkscape:connector-curvature="0" />
      <path
         d="m 336.50314,354.47897 0.83008,0 -2.53906,8.21778 -0.83008,0 2.53906,-8.21778 z"
         id="path3516"
         inkscape:connector-curvature="0" />
      <path
         d="m 340.5217,355.12839 q -0.76172,0 -1.14746,0.75195 -0.38086,0.74707 -0.38086,2.25098 0,1.49902 0.38086,2.25097 0.38574,0.74707 1.14746,0.74707 0.7666,0 1.14746,-0.74707 0.38574,-0.75195 0.38574,-2.25097 0,-1.50391 -0.38574,-2.25098 -0.38086,-0.75195 -1.14746,-0.75195 z m 0,-0.78125 q 1.22558,0 1.87012,0.97168 0.64941,0.96679 0.64941,2.8125 0,1.84082 -0.64941,2.8125 -0.64454,0.96679 -1.87012,0.96679 -1.22559,0 -1.875,-0.96679 -0.64453,-0.97168 -0.64453,-2.8125 0,-1.84571 0.64453,-2.8125 0.64941,-0.97168 1.875,-0.97168 z"
         id="path3518"
         inkscape:connector-curvature="0" />
      <path
         d="m 346.24924,354.47897 0.83008,0 -2.53907,8.21778 -0.83008,0 2.53907,-8.21778 z"
         id="path3520"
         inkscape:connector-curvature="0" />
      <path
         d="m 352.28928,357.35007 q 0.33691,-0.60547 0.80566,-0.89356 0.46875,-0.28808 1.10352,-0.28808 0.85449,0 1.31836,0.60058 0.46386,0.59571 0.46386,1.69922 l 0,3.30078 -0.90332,0 0,-3.27148 q 0,-0.78613 -0.27832,-1.16699 -0.27832,-0.38086 -0.84961,-0.38086 -0.69824,0 -1.10351,0.46386 -0.40528,0.46387 -0.40528,1.26465 l 0,3.09082 -0.90332,0 0,-3.27148 q 0,-0.79102 -0.27832,-1.16699 -0.27832,-0.38086 -0.85937,-0.38086 -0.68848,0 -1.09375,0.46875 -0.40528,0.46386 -0.40528,1.25976 l 0,3.09082 -0.90332,0 0,-5.46875 0.90332,0 0,0.84961 q 0.30762,-0.50293 0.73731,-0.74219 0.42969,-0.23925 1.02051,-0.23925 0.5957,0 1.01074,0.30273 0.41992,0.30274 0.62012,0.87891 z"
         id="path3522"
         inkscape:connector-curvature="0" />
      <path
         d="m 360.03342,362.27682 q -0.38086,0.97657 -0.74219,1.27442 -0.36133,0.29785 -0.9668,0.29785 l -0.71777,0 0,-0.75195 0.52734,0 q 0.3711,0 0.57617,-0.17578 0.20508,-0.17579 0.45411,-0.83008 l 0.16113,-0.41016 -2.21192,-5.38086 0.95215,0 1.70899,4.27735 1.70898,-4.27735 0.95215,0 -2.40234,5.97656 z"
         id="path3524"
         inkscape:connector-curvature="0" />
      <path
         d="m 363.05588,358.62936 2.63183,0 0,0.80079 -2.63183,0 0,-0.80079 z"
         id="path3526"
         inkscape:connector-curvature="0" />
      <path
         d="m 370.73166,357.13034 0,-2.95898 0.89844,0 0,7.59765 -0.89844,0 0,-0.82031 q -0.2832,0.48828 -0.71777,0.72754 -0.42969,0.23437 -1.03516,0.23437 -0.99121,0 -1.61621,-0.79101 -0.62012,-0.79102 -0.62012,-2.08008 0,-1.28906 0.62012,-2.08008 0.625,-0.79101 1.61621,-0.79101 0.60547,0 1.03516,0.23925 0.43457,0.23438 0.71777,0.72266 z m -3.06152,1.90918 q 0,0.99121 0.40527,1.55762 0.41016,0.56152 1.12305,0.56152 0.71289,0 1.12304,-0.56152 0.41016,-0.56641 0.41016,-1.55762 0,-0.99121 -0.41016,-1.55273 -0.41015,-0.56641 -1.12304,-0.56641 -0.71289,0 -1.12305,0.56641 -0.40527,0.56152 -0.40527,1.55273 z"
         id="path3528"
         inkscape:connector-curvature="0" />
      <path
         d="m 376.64963,357.14011 q -0.15137,-0.0879 -0.33203,-0.12696 -0.17578,-0.0439 -0.39063,-0.0439 -0.76172,0 -1.17187,0.49804 -0.40528,0.49317 -0.40528,1.4209 l 0,2.88086 -0.90332,0 0,-5.46875 0.90332,0 0,0.84961 q 0.28321,-0.49805 0.73731,-0.7373 0.4541,-0.24414 1.10351,-0.24414 0.0928,0 0.20508,0.0146 0.11231,0.01 0.24902,0.0342 l 0.005,0.92286 z"
         id="path3530"
         inkscape:connector-curvature="0" />
      <path
         d="m 377.60178,356.30026 0.89843,0 0,5.46875 -0.89843,0 0,-5.46875 z m 0,-2.1289 0.89843,0 0,1.13769 -0.89843,0 0,-1.13769 z"
         id="path3532"
         inkscape:connector-curvature="0" />
      <path
         d="m 379.73068,356.30026 0.95215,0 1.70899,4.58985 1.70898,-4.58985 0.95215,0 -2.05078,5.46875 -1.22071,0 -2.05078,-5.46875 z"
         id="path3534"
         inkscape:connector-curvature="0" />
      <path
         d="m 390.97092,358.81003 0,0.43945 -4.13086,0 q 0.0586,0.92774 0.55664,1.41602 0.50293,0.4834 1.39648,0.4834 0.51758,0 1.00098,-0.12696 0.48828,-0.12695 0.9668,-0.38086 l 0,0.84961 q -0.4834,0.20508 -0.99122,0.3125 -0.50781,0.10742 -1.03027,0.10742 -1.30859,0 -2.07519,-0.76171 -0.76172,-0.76172 -0.76172,-2.06055 0,-1.34278 0.72265,-2.12891 0.72754,-0.79101 1.95801,-0.79101 1.10352,0 1.74317,0.71289 0.64453,0.708 0.64453,1.92871 z m -0.89844,-0.26367 q -0.01,-0.73731 -0.41504,-1.17676 -0.40039,-0.43945 -1.06445,-0.43945 -0.75196,0 -1.20606,0.4248 -0.44922,0.4248 -0.51758,1.19629 l 3.20313,-0.005 z"
         id="path3536"
         inkscape:connector-curvature="0" />
      <path
         d="m 393.39279,360.52878 0.99121,0 0,1.24023 -0.99121,0 0,-1.24023 z m 0.96192,-0.71778 -0.93262,0 0,-0.75195 q 0,-0.49316 0.13672,-0.81055 0.13672,-0.31738 0.57617,-0.7373 l 0.43945,-0.43457 q 0.27832,-0.25879 0.40039,-0.48828 0.12696,-0.22949 0.12696,-0.46875 0,-0.43457 -0.32227,-0.70313 -0.31738,-0.26855 -0.84473,-0.26855 -0.38574,0 -0.82519,0.1709 -0.43457,0.1709 -0.9082,0.49804 l 0,-0.91796 q 0.45898,-0.27833 0.92773,-0.41504 0.47363,-0.13672 0.97656,-0.13672 0.89844,0 1.44043,0.47363 0.54688,0.47363 0.54688,1.25 0,0.37109 -0.17578,0.70801 -0.17579,0.33203 -0.61524,0.75195 l -0.42969,0.41992 q -0.22949,0.2295 -0.32714,0.36133 -0.0928,0.12695 -0.13184,0.24902 -0.0293,0.10254 -0.0439,0.24903 -0.0146,0.14648 -0.0146,0.40039 l 0,0.60058 z"
         id="path3538"
         inkscape:connector-curvature="0" />
      <path
         d="m 397.73849,356.30026 0.89844,0 0,5.46875 -0.89844,0 0,-5.46875 z m 0,-2.1289 0.89844,0 0,1.13769 -0.89844,0 0,-1.13769 z"
         id="path3540"
         inkscape:connector-curvature="0" />
      <path
         d="m 404.11057,357.13034 0,-2.95898 0.89843,0 0,7.59765 -0.89843,0 0,-0.82031 q -0.28321,0.48828 -0.71778,0.72754 -0.42969,0.23437 -1.03515,0.23437 -0.99122,0 -1.61622,-0.79101 -0.62011,-0.79102 -0.62011,-2.08008 0,-1.28906 0.62011,-2.08008 0.625,-0.79101 1.61622,-0.79101 0.60546,0 1.03515,0.23925 0.43457,0.23438 0.71778,0.72266 z m -3.06153,1.90918 q 0,0.99121 0.40528,1.55762 0.41015,0.56152 1.12304,0.56152 0.71289,0 1.12305,-0.56152 0.41016,-0.56641 0.41016,-1.55762 0,-0.99121 -0.41016,-1.55273 -0.41016,-0.56641 -1.12305,-0.56641 -0.71289,0 -1.12304,0.56641 -0.40528,0.56152 -0.40528,1.55273 z"
         id="path3542"
         inkscape:connector-curvature="0" />
      <path
         d="m 406.97678,357.228 6.25976,0 0,0.82031 -6.25976,0 0,-0.82031 z m 0,1.99218 6.25976,0 0,0.83008 -6.25976,0 0,-0.83008 z"
         id="path3544"
         inkscape:connector-curvature="0" />
      <path
         d="m 415.53635,360.93893 1.61132,0 0,-5.56152 -1.75293,0.35156 0,-0.89843 1.74317,-0.35157 0.98633,0 0,6.45996 1.61133,0 0,0.83008 -4.19922,0 0,-0.83008 z"
         id="path3546"
         inkscape:connector-curvature="0" />
    </g>
    <g
       style="font-style:normal;font-weight:normal;font-size:17.5px;line-height:125%;font-family:sans-serif;letter-spacing:0px;word-spacing:0px;fill:#000000;fill-opacity:1;stroke:none;stroke-width:1px;stroke-linecap:butt;stroke-linejoin:miter;stroke-opacity:1"
       id="text3352-02"
       transform="matrix(5.9322615,0,0,1,-699.12381,1.1701876)">
      <path
         d="m 178.00717,366.70153 q -0.805,0 -1.33,0.28 -0.525,0.2625 -0.7,1.155 l -0.0175,0.0175 q -0.14,-0.49 -0.3325,-0.77 -0.175,-0.28 -0.42,-0.42 -0.245,-0.1575 -0.5775,-0.1925 -0.3325,-0.0525 -0.77,-0.0525 l -3.185,0 q -0.77,0 -1.3125,-0.105 -0.5425,-0.1225 -0.8925,-0.4025 -0.35,-0.28 -0.49,-0.77 -0.1575,-0.49 -0.1225,-1.2425 0.49,1.4175 2.1175,1.4175 l 3.36,0 q 0.5075,0 0.9275,0.0525 0.42,0.0525 0.7525,0.21 0.3325,0.1575 0.5775,0.4375 0.245,0.2625 0.3675,0.7175 l 0.0175,-0.0175 q 0.105,-0.4375 0.28,-0.7 0.1925,-0.28 0.49,-0.4375 0.2975,-0.1575 0.6825,-0.21 0.4025,-0.07 0.8925,-0.07 l 3.605,0 q 0.8925,0 1.3825,-0.35 0.49,-0.35 0.735,-1.19 l 0.035,0 q 0.0175,0.77 -0.1225,1.295 -0.14,0.5075 -0.455,0.805 -0.2975,0.2975 -0.7875,0.42 -0.4725,0.1225 -1.1375,0.1225 l -3.57,0 z"
         id="path3383-0"
         inkscape:connector-curvature="0" />
    </g>
    <g
       style="font-style:normal;font-weight:normal;font-size:17.5px;line-height:125%;font-family:sans-serif;letter-spacing:0px;word-spacing:0px;fill:#000000;fill-opacity:1;stroke:none;stroke-width:1px;stroke-linecap:butt;stroke-linejoin:miter;stroke-opacity:1"
       id="text3352-02-9"
       transform="matrix(1.5601306,0,0,1,132.47415,0.4125732)">
      <path
         d="m 178.00717,366.70153 q -0.805,0 -1.33,0.28 -0.525,0.2625 -0.7,1.155 l -0.0175,0.0175 q -0.14,-0.49 -0.3325,-0.77 -0.175,-0.28 -0.42,-0.42 -0.245,-0.1575 -0.5775,-0.1925 -0.3325,-0.0525 -0.77,-0.0525 l -3.185,0 q -0.77,0 -1.3125,-0.105 -0.5425,-0.1225 -0.8925,-0.4025 -0.35,-0.28 -0.49,-0.77 -0.1575,-0.49 -0.1225,-1.2425 0.49,1.4175 2.1175,1.4175 l 3.36,0 q 0.5075,0 0.9275,0.0525 0.42,0.0525 0.7525,0.21 0.3325,0.1575 0.5775,0.4375 0.245,0.2625 0.3675,0.7175 l 0.0175,-0.0175 q 0.105,-0.4375 0.28,-0.7 0.1925,-0.28 0.49,-0.4375 0.2975,-0.1575 0.6825,-0.21 0.4025,-0.07 0.8925,-0.07 l 3.605,0 q 0.8925,0 1.3825,-0.35 0.49,-0.35 0.735,-1.19 l 0.035,0 q 0.0175,0.77 -0.1225,1.295 -0.14,0.5075 -0.455,0.805 -0.2975,0.2975 -0.7875,0.42 -0.4725,0.1225 -1.1375,0.1225 l -3.57,0 z"
         id="path3383-0-1"
         inkscape:connector-curvature="0" />
    </g>
    <g
       style="font-style:normal;font-weight:normal;font-size:10px;line-height:125%;font-family:sans-serif;letter-spacing:0px;word-spacing:0px;fill:#000000;fill-opacity:1;stroke:none;stroke-width:1px;stroke-linecap:butt;stroke-linejoin:miter;stroke-opacity:1"
       id="text3431">
      <path
         d="m 245.19858,375.4187 1.46972,0 1.86036,4.96094 1.87011,-4.96094 1.46973,0 0,7.29004 -0.96191,0 0,-6.40137 -1.87989,5 -0.99121,0 -1.87988,-5 0,6.40137 -0.95703,0 0,-7.29004 z"
         id="path3556"
         inkscape:connector-curvature="0" />
      <path
         d="m 253.81186,375.4187 0.98633,0 0,6.45996 3.5498,0 0,0.83008 -4.53613,0 0,-7.29004 z"
         id="path3558"
         inkscape:connector-curvature="0" />
      <path
         d="m 260.36459,376.22925 0,5.66894 1.19141,0 q 1.50879,0 2.20703,-0.68359 0.70313,-0.68359 0.70313,-2.1582 0,-1.46485 -0.70313,-2.14356 -0.69824,-0.68359 -2.20703,-0.68359 l -1.19141,0 z m -0.98632,-0.81055 2.02636,0 q 2.11914,0 3.11035,0.88379 0.99122,0.87891 0.99122,2.75391 0,1.88476 -0.9961,2.76855 -0.99609,0.88379 -3.10547,0.88379 l -2.02636,0 0,-7.29004 z"
         id="path3560"
         inkscape:connector-curvature="0" />
    </g>
    <g
       style="font-style:normal;font-weight:normal;font-size:10px;line-height:125%;font-family:sans-serif;letter-spacing:0px;word-spacing:0px;fill:#000000;fill-opacity:1;stroke:none;stroke-width:1px;stroke-linecap:butt;stroke-linejoin:miter;stroke-opacity:1"
       id="text3435">
      <path
         d="m 280.02502,375.97672 0,2.73925 1.24024,0 q 0.68848,0 1.06445,-0.35644 0.37598,-0.35645 0.37598,-1.01563 0,-0.65429 -0.37598,-1.01074 -0.37597,-0.35644 -1.06445,-0.35644 l -1.24024,0 z m -0.98632,-0.81055 2.22656,0 q 1.22558,0 1.85058,0.55664 0.62989,0.55176 0.62989,1.62109 0,1.0791 -0.62989,1.63086 -0.625,0.55176 -1.85058,0.55176 l -1.24024,0 0,2.92969 -0.98632,0 0,-7.29004 z"
         id="path3563"
         inkscape:connector-curvature="0" />
      <path
         d="m 289.44397,375.40543 0,0.96191 q -0.56152,-0.26855 -1.05957,-0.40039 -0.49805,-0.13184 -0.96191,-0.13184 -0.80567,0 -1.24512,0.3125 -0.43457,0.3125 -0.43457,0.88868 0,0.48339 0.28808,0.73242 0.29297,0.24414 1.10352,0.39551 l 0.5957,0.12207 q 1.10352,0.20996 1.62598,0.74218 0.52734,0.52735 0.52734,1.41602 0,1.05957 -0.71289,1.60644 -0.70801,0.54688 -2.08008,0.54688 -0.51757,0 -1.10351,-0.11719 -0.58106,-0.11719 -1.20606,-0.34668 l 0,-1.01562 q 0.60059,0.33691 1.17676,0.50781 0.57617,0.1709 1.13281,0.1709 0.84473,0 1.30372,-0.33203 0.45898,-0.33203 0.45898,-0.94727 0,-0.53711 -0.33203,-0.83984 -0.32715,-0.30274 -1.0791,-0.4541 l -0.60059,-0.11719 q -1.10351,-0.21973 -1.59668,-0.68848 -0.49316,-0.46875 -0.49316,-1.30371 0,-0.9668 0.67871,-1.52344 0.68359,-0.55664 1.87988,-0.55664 0.5127,0 1.04492,0.0928 0.53223,0.0928 1.08887,0.27832 z"
         id="path3565"
         inkscape:connector-curvature="0" />
    </g>
    <g
       style="font-style:normal;font-weight:normal;font-size:10px;line-height:125%;font-family:sans-serif;letter-spacing:0px;word-spacing:0px;fill:#000000;fill-opacity:1;stroke:none;stroke-width:1px;stroke-linecap:butt;stroke-linejoin:miter;stroke-opacity:1"
       id="text3439">
      <path
         d="m 212.11609,374.66107 0.98633,0 0,6.45996 3.5498,0 0,0.83008 -4.53613,0 0,-7.29004 z"
         id="path3549"
         inkscape:connector-curvature="0" />
      <path
         d="m 217.6825,374.66107 0.98632,0 0,6.45996 3.54981,0 0,0.83008 -4.53613,0 0,-7.29004 z"
         id="path3551"
         inkscape:connector-curvature="0" />
      <path
         d="m 224.23523,375.47162 0,5.66894 1.19141,0 q 1.50878,0 2.20703,-0.68359 0.70312,-0.68359 0.70312,-2.1582 0,-1.46485 -0.70312,-2.14356 -0.69825,-0.68359 -2.20703,-0.68359 l -1.19141,0 z m -0.98633,-0.81055 2.02637,0 q 2.11914,0 3.11035,0.88379 0.99121,0.87891 0.99121,2.75391 0,1.88476 -0.99609,2.76855 -0.9961,0.88379 -3.10547,0.88379 l -2.02637,0 0,-7.29004 z"
         id="path3553"
         inkscape:connector-curvature="0" />
    </g>
    <g
       style="font-style:normal;font-weight:normal;font-size:10px;line-height:125%;font-family:sans-serif;letter-spacing:0px;word-spacing:0px;fill:#000000;fill-opacity:1;stroke:none;stroke-width:1px;stroke-linecap:butt;stroke-linejoin:miter;stroke-opacity:1"
       id="text3443">
      <path
         d="m 329.26996,375.72418 0,2.73926 1.24023,0 q 0.68848,0 1.06446,-0.35645 0.37597,-0.35644 0.37597,-1.01562 0,-0.6543 -0.37597,-1.01074 -0.37598,-0.35645 -1.06446,-0.35645 l -1.24023,0 z m -0.98633,-0.81054 2.22656,0 q 1.22559,0 1.85059,0.55664 0.62988,0.55175 0.62988,1.62109 0,1.0791 -0.62988,1.63086 -0.625,0.55176 -1.85059,0.55176 l -1.24023,0 0,2.92968 -0.98633,0 0,-7.29003 z"
         id="path3568"
         inkscape:connector-curvature="0" />
      <path
         d="m 336.12054,375.88531 -1.33789,3.62793 2.68067,0 -1.34278,-3.62793 z m -0.55664,-0.97167 1.11817,0 2.77832,7.29003 -1.02539,0 -0.66406,-1.87011 -3.28614,0 -0.66406,1.87011 -1.04004,0 2.7832,-7.29003 z"
         id="path3570"
         inkscape:connector-curvature="0" />
      <path
         d="m 338.73773,374.91364 6.16699,0 0,0.83007 -2.58789,0 0,6.45996 -0.99121,0 0,-6.45996 -2.58789,0 0,-0.83007 z"
         id="path3572"
         inkscape:connector-curvature="0" />
      <path
         d="m 345.88129,374.91364 0.98632,0 0,2.98828 3.58399,0 0,-2.98828 0.98633,0 0,7.29003 -0.98633,0 0,-3.47168 -3.58399,0 0,3.47168 -0.98632,0 0,-7.29003 z"
         id="path3574"
         inkscape:connector-curvature="0" />
    </g>
    <g
       style="font-style:normal;font-weight:normal;font-size:10px;line-height:125%;font-family:sans-serif;letter-spacing:0px;word-spacing:0px;fill:#000000;fill-opacity:1;stroke:none;stroke-width:1px;stroke-linecap:butt;stroke-linejoin:miter;stroke-opacity:1"
       id="text3447"
       transform="translate(0,-1.0714286)">
      <path
         d="m 393.367,376.08765 q -1.07421,0 -1.70898,0.80078 -0.62988,0.80078 -0.62988,2.18261 0,1.37696 0.62988,2.17774 0.63477,0.80078 1.70898,0.80078 1.07422,0 1.69922,-0.80078 0.62989,-0.80078 0.62989,-2.17774 0,-1.38183 -0.62989,-2.18261 -0.625,-0.80078 -1.69922,-0.80078 z m 1.38184,6.48925 1.29883,1.4209 -1.19141,0 -1.0791,-1.16699 q -0.16113,0.01 -0.24902,0.0147 -0.083,0.005 -0.16114,0.005 -1.53808,0 -2.46093,-1.02539 -0.91797,-1.03027 -0.91797,-2.75391 0,-1.72851 0.91797,-2.7539 0.92285,-1.03027 2.46093,-1.03027 1.53321,0 2.45118,1.03027 0.91797,1.02539 0.91797,2.7539 0,1.26954 -0.5127,2.17286 -0.50781,0.90332 -1.47461,1.333 z"
         id="path3577"
         inkscape:connector-curvature="0" />
      <path
         d="m 398.16681,375.4187 0.99121,0 0,4.42871 q 0,1.17188 0.4248,1.68946 0.42481,0.51269 1.37696,0.51269 0.94726,0 1.37207,-0.51269 0.4248,-0.51758 0.4248,-1.68946 l 0,-4.42871 0.99121,0 0,4.55078 q 0,1.42578 -0.708,2.15332 -0.70313,0.72754 -2.08008,0.72754 -1.38184,0 -2.08985,-0.72754 -0.70312,-0.72754 -0.70312,-2.15332 l 0,-4.55078 z"
         id="path3579"
         inkscape:connector-curvature="0" />
      <path
         d="m 405.60333,375.4187 4.60938,0 0,0.83008 -3.62305,0 0,2.1582 3.47168,0 0,0.83008 -3.47168,0 0,2.6416 3.71094,0 0,0.83008 -4.69727,0 0,-7.29004 z"
         id="path3581"
         inkscape:connector-curvature="0" />
      <path
         d="m 415.36896,379.29077 q 0.31738,0.10742 0.61523,0.45899 0.30274,0.35156 0.60547,0.96679 l 1.00098,1.99219 -1.05957,0 -0.93262,-1.87012 q -0.36133,-0.73242 -0.70313,-0.97168 -0.33691,-0.23925 -0.92285,-0.23925 l -1.07422,0 0,3.08105 -0.98632,0 0,-7.29004 2.22656,0 q 1.25,0 1.86523,0.52246 0.61524,0.52246 0.61524,1.57715 0,0.68848 -0.32227,1.14258 -0.31738,0.4541 -0.92773,0.62988 z m -2.47071,-3.06152 0,2.58789 1.24024,0 q 0.71289,0 1.07422,-0.32715 0.36621,-0.33203 0.36621,-0.97168 0,-0.63965 -0.36621,-0.96191 -0.36133,-0.32715 -1.07422,-0.32715 l -1.24024,0 z"
         id="path3583"
         inkscape:connector-curvature="0" />
      <path
         d="m 417.22931,375.4187 1.05957,0 2.02148,2.99805 2.00684,-2.99805 1.05957,0 -2.57812,3.81836 0,3.47168 -0.99122,0 0,-3.47168 -2.57812,-3.81836 z"
         id="path3585"
         inkscape:connector-curvature="0" />
    </g>
  </g>
</svg>
